<svg width="37" height="37" viewBox="0 0 37 37" fill="none" xmlns="http://www.w3.org/2000/svg">
<path d="M9.23529 17.2206H8.98529V17.4706V19.5294V19.7794H9.23529H17.2206V27.7647V28.0147H17.4706H19.5294H19.7794V27.7647V19.7794H27.7647H28.0147V19.5294V17.4706V17.2206H27.7647H19.7794V9.23529V8.98529H19.5294H17.4706H17.2206V9.23529V17.2206H9.23529ZM29.8235 0.75H7.17647C5.47206 0.75 3.83747 1.42707 2.63227 2.63227C1.42707 3.83747 0.75 5.47206 0.75 7.17647V29.8235C0.75 31.5279 1.42707 33.1625 2.63227 34.3677C3.83747 35.5729 5.47206 36.25 7.17647 36.25H29.8235C31.5279 36.25 33.1625 35.5729 34.3677 34.3677C35.5729 33.1625 36.25 31.5279 36.25 29.8235V7.17647C36.25 5.47206 35.5729 3.83747 34.3677 2.63227C33.1625 1.42707 31.5279 0.75 29.8235 0.75ZM4.44163 4.44163C5.16696 3.71631 6.15071 3.30882 7.17647 3.30882H29.8235C30.8493 3.30882 31.833 3.71631 32.5584 4.44163C33.2837 5.16696 33.6912 6.15071 33.6912 7.17647V29.8235C33.6912 30.8493 33.2837 31.833 32.5584 32.5584C31.833 33.2837 30.8493 33.6912 29.8235 33.6912H7.17647C6.15071 33.6912 5.16696 33.2837 4.44163 32.5584C3.71631 31.833 3.30882 30.8493 3.30882 29.8235V7.17647C3.30882 6.15071 3.71631 5.16696 4.44163 4.44163Z" fill="black" stroke="black" stroke-width="0.5"/>
</svg>
