<svg width="36" height="36" viewBox="0 0 36 36" fill="none" xmlns="http://www.w3.org/2000/svg">
<path d="M8.29166 27.5417L21.4167 21.4167L27.5417 8.29169L14.4167 14.4167L8.29166 27.5417ZM17.9167 19.6667C17.4208 19.6667 17.0049 19.4987 16.6689 19.1627C16.3329 18.8267 16.1655 18.4114 16.1667 17.9167C16.1667 17.4209 16.3347 17.0049 16.6707 16.6689C17.0067 16.3329 17.422 16.1655 17.9167 16.1667C18.4125 16.1667 18.8284 16.3347 19.1644 16.6707C19.5004 17.0067 19.6678 17.422 19.6667 17.9167C19.6667 18.4125 19.4987 18.8284 19.1627 19.1644C18.8267 19.5004 18.4113 19.6679 17.9167 19.6667ZM17.9167 35.4167C15.4958 35.4167 13.2208 34.957 11.0917 34.0377C8.96249 33.1184 7.11041 31.8718 5.53541 30.2979C3.96041 28.7229 2.71382 26.8709 1.79566 24.7417C0.87749 22.6125 0.417823 20.3375 0.416656 17.9167C0.416656 15.4959 0.876323 13.2209 1.79566 11.0917C2.71499 8.96252 3.96157 7.11044 5.53541 5.53544C7.11041 3.96044 8.96249 2.71385 11.0917 1.79569C13.2208 0.877521 15.4958 0.417854 17.9167 0.416687C20.3375 0.416687 22.6125 0.876354 24.7417 1.79569C26.8708 2.71502 28.7229 3.9616 30.2979 5.53544C31.8729 7.11044 33.1201 8.96252 34.0394 11.0917C34.9587 13.2209 35.4178 15.4959 35.4167 17.9167C35.4167 20.3375 34.957 22.6125 34.0377 24.7417C33.1183 26.8709 31.8717 28.7229 30.2979 30.2979C28.7229 31.8729 26.8708 33.1201 24.7417 34.0394C22.6125 34.9588 20.3375 35.4179 17.9167 35.4167ZM17.9167 31.9167C21.825 31.9167 25.1354 30.5604 27.8479 27.8479C30.5604 25.1354 31.9167 21.825 31.9167 17.9167C31.9167 14.0084 30.5604 10.6979 27.8479 7.98544C25.1354 5.27294 21.825 3.91669 17.9167 3.91669C14.0083 3.91669 10.6979 5.27294 7.98541 7.98544C5.27291 10.6979 3.91666 14.0084 3.91666 17.9167C3.91666 21.825 5.27291 25.1354 7.98541 27.8479C10.6979 30.5604 14.0083 31.9167 17.9167 31.9167Z" fill="black"/>
</svg>
