<svg width="36" height="35" viewBox="0 0 36 35" fill="none" xmlns="http://www.w3.org/2000/svg">
<path d="M35.75 5V2.5C35.75 1.83696 35.4663 1.20107 34.9614 0.732233C34.4565 0.263392 33.7717 0 33.0577 0H3.44231C2.72826 0 2.04346 0.263392 1.53856 0.732233C1.03365 1.20107 0.75 1.83696 0.75 2.5V5C0.75 5.66304 1.03365 6.29892 1.53856 6.76777C2.04346 7.23661 2.72826 7.5 3.44231 7.5V22.5H2.09615C1.73913 22.5 1.39673 22.6317 1.14428 22.8661C0.891826 23.1005 0.75 23.4185 0.75 23.75C0.75 24.0815 0.891826 24.3995 1.14428 24.6339C1.39673 24.8683 1.73913 25 2.09615 25H16.9038V27.7156C16.0057 28.0105 15.2487 28.5907 14.7667 29.3537C14.2846 30.1167 14.1086 31.0134 14.2697 31.8853C14.4308 32.7572 14.9186 33.5481 15.647 34.1183C16.3754 34.6884 17.2973 35.0012 18.25 35.0012C19.2027 35.0012 20.1246 34.6884 20.853 34.1183C21.5814 33.5481 22.0692 32.7572 22.2303 31.8853C22.3914 31.0134 22.2154 30.1167 21.7333 29.3537C21.2513 28.5907 20.4943 28.0105 19.5962 27.7156V25H34.4038C34.7609 25 35.1033 24.8683 35.3557 24.6339C35.6082 24.3995 35.75 24.0815 35.75 23.75C35.75 23.4185 35.6082 23.1005 35.3557 22.8661C35.1033 22.6317 34.7609 22.5 34.4038 22.5H33.0577V7.5C33.7717 7.5 34.4565 7.23661 34.9614 6.76777C35.4663 6.29892 35.75 5.66304 35.75 5ZM18.25 32.5C17.9838 32.5 17.7235 32.4267 17.5021 32.2893C17.2807 32.152 17.1082 31.9568 17.0063 31.7284C16.9044 31.4999 16.8778 31.2486 16.9297 31.0061C16.9817 30.7637 17.1099 30.5409 17.2981 30.3661C17.4864 30.1913 17.7263 30.0722 17.9874 30.024C18.2485 29.9758 18.5192 30.0005 18.7652 30.0951C19.0111 30.1898 19.2214 30.35 19.3693 30.5555C19.5172 30.7611 19.5962 31.0028 19.5962 31.25C19.5962 31.5815 19.4543 31.8995 19.2019 32.1339C18.9494 32.3683 18.607 32.5 18.25 32.5ZM3.44231 2.5H33.0577V5H3.44231V2.5ZM30.3654 22.5H6.13462V7.5H30.3654V22.5Z" fill="black"/>
</svg>
