<svg width="36" height="36" viewBox="0 0 36 36" fill="none" xmlns="http://www.w3.org/2000/svg">
<path d="M18.2846 10.8333C20.1928 10.8333 22.0228 11.5708 23.3721 12.8836C24.7214 14.1963 25.4794 15.9768 25.4794 17.8333C25.4794 19.6899 24.7214 21.4703 23.3721 22.7831C22.0228 24.0958 20.1928 24.8333 18.2846 24.8333C16.3764 24.8333 14.5464 24.0958 13.1971 22.7831C11.8478 21.4703 11.0898 19.6899 11.0898 17.8333C11.0898 15.9768 11.8478 14.1963 13.1971 12.8836C14.5464 11.5708 16.3764 10.8333 18.2846 10.8333ZM18.2846 14.3333C17.3305 14.3333 16.4155 14.7021 15.7408 15.3585C15.0662 16.0148 14.6872 16.9051 14.6872 17.8333C14.6872 18.7616 15.0662 19.6518 15.7408 20.3082C16.4155 20.9646 17.3305 21.3333 18.2846 21.3333C19.2387 21.3333 20.1537 20.9646 20.8283 20.3082C21.503 19.6518 21.882 18.7616 21.882 17.8333C21.882 16.9051 21.503 16.0148 20.8283 15.3585C20.1537 14.7021 19.2387 14.3333 18.2846 14.3333ZM14.6872 35.3333C14.2375 35.3333 13.8598 35.0183 13.7878 34.5983L13.1223 29.9608C11.9891 29.5233 11.0178 28.9283 10.0825 28.2283L5.60374 29.9958C5.20802 30.1358 4.72237 29.9958 4.50653 29.6108L0.909123 23.5558C0.799034 23.3755 0.760224 23.1624 0.79995 22.9562C0.839676 22.7501 0.955217 22.5651 1.12497 22.4358L4.92023 19.5308L4.79432 17.8333L4.92023 16.0833L1.12497 13.2308C0.955217 13.1016 0.839676 12.9166 0.79995 12.7104C0.760224 12.5043 0.799034 12.2911 0.909123 12.1108L4.50653 6.05584C4.72237 5.67084 5.20802 5.51334 5.60374 5.67084L10.0825 7.42084C11.0178 6.73834 11.9891 6.14334 13.1223 5.70584L13.7878 1.06834C13.8598 0.648336 14.2375 0.333336 14.6872 0.333336H21.882C22.3317 0.333336 22.7094 0.648336 22.7813 1.06834L23.4469 5.70584C24.58 6.14334 25.5513 6.73834 26.4867 7.42084L30.9654 5.67084C31.3612 5.51334 31.8468 5.67084 32.0626 6.05584L35.6601 12.1108C35.8939 12.4958 35.786 12.9683 35.4442 13.2308L31.6489 16.0833L31.7749 17.8333L31.6489 19.5833L35.4442 22.4358C35.786 22.6983 35.8939 23.1708 35.6601 23.5558L32.0626 29.6108C31.8468 29.9958 31.3612 30.1533 30.9654 29.9958L26.4867 28.2458C25.5513 28.9283 24.58 29.5233 23.4469 29.9608L22.7813 34.5983C22.7094 35.0183 22.3317 35.3333 21.882 35.3333H14.6872ZM16.9356 3.83334L16.27 8.40084C14.1116 8.83834 12.205 9.95834 10.82 11.5158L6.4851 9.69584L5.13607 11.9708L8.93134 14.6833C8.21185 16.725 8.21185 18.9417 8.93134 20.9833L5.11809 23.7133L6.46711 25.9883L10.838 24.1683C12.223 25.7083 14.1116 26.8283 16.2521 27.2483L16.9176 31.8333H19.6516L20.3171 27.2658C22.4576 26.8283 24.3462 25.7083 25.7312 24.1683L30.1021 25.9883L31.4511 23.7133L27.6378 21.0008C28.3573 18.9533 28.3573 16.7308 27.6378 14.6833L31.4331 11.9708L30.0841 9.69584L25.7492 11.5158C24.3358 9.9239 22.4186 8.83427 20.2991 8.41834L19.6336 3.83334H16.9356Z" fill="black"/>
</svg>
