<svg width="30" height="30" viewBox="0 0 30 30" fill="none" xmlns="http://www.w3.org/2000/svg">
<path d="M19.5181 11.5725L18.2889 11.3616C18.2592 11.5458 18.2688 11.7344 18.3169 11.9144C18.365 12.0944 18.4505 12.2614 18.5675 12.4038C18.6845 12.5462 18.8301 12.6606 18.9943 12.7391C19.1585 12.8175 19.3372 12.8582 19.5181 12.8581V11.5725ZM1.24584 11.5725V10.2868C0.915421 10.2868 0.598537 10.4223 0.364897 10.6634C0.131257 10.9045 0 11.2315 0 11.5725H1.24584ZM4.56807 30H23.4384V27.4287H4.56807V30ZM25.4317 10.2868H19.5181V12.8581H25.4317V10.2868ZM20.7473 11.7833L22.0862 3.49523L19.6278 3.07182L18.2889 11.3616L20.7473 11.7833ZM19.2191 0.00171406H18.8636V2.573H19.2175L19.2191 0.00171406ZM13.6793 2.86441L9.50159 9.33204L11.5747 10.7582L15.7524 4.29061L13.6793 2.86441ZM7.77403 10.2868H1.24584V12.8581H7.77403V10.2868ZM0 11.5725V25.286H2.49167V11.5725H0ZM27.9184 26.2116L29.9117 15.9265L27.4699 15.4208L25.4765 25.706L27.9184 26.2099V26.2116ZM9.50159 9.33204C9.31205 9.62565 9.0552 9.86471 8.75383 10.0313C8.45246 10.1978 8.1159 10.285 7.77403 10.2851V12.8564C9.30225 12.8564 10.7275 12.0696 11.5747 10.7582L9.50159 9.33204ZM22.0862 3.49523C22.1554 3.0656 22.1332 2.62386 22.0209 2.204C21.9087 1.78415 21.7093 1.39455 21.4365 1.06227C21.1636 0.729983 20.8239 0.462992 20.441 0.279846C20.0581 0.0966992 19.6412 0.00179012 19.2191 0.00171406L19.2175 2.573C19.2777 2.57315 19.3388 2.58681 19.3934 2.61304C19.448 2.63926 19.4964 2.67742 19.5352 2.72488C19.5741 2.77233 19.6025 2.82794 19.6185 2.88784C19.6345 2.94775 19.6376 3.01053 19.6278 3.07182L22.0862 3.49523ZM25.4317 12.8564C26.744 12.8564 27.724 14.0941 27.4682 15.4191L29.9117 15.9248C30.0439 15.241 30.0275 14.5337 29.8635 13.8573C29.6996 13.1809 29.3923 12.5504 28.9638 12.0112C28.5353 11.4721 27.9962 11.0378 27.3854 10.7396C26.7747 10.4415 26.1074 10.2868 25.4317 10.2868V12.8581V12.8564ZM23.4384 30C24.4943 30.0002 25.5178 29.6212 26.3346 28.9305C27.1514 28.2398 27.711 27.2784 27.9184 26.2099L25.4765 25.7042C25.3824 26.1904 25.1278 26.6278 24.7561 26.9419C24.3845 27.2561 23.9188 27.4292 23.4384 27.4287V30ZM18.8636 0.00171406C17.8382 0.00179094 16.8286 0.261405 15.9245 0.760791C15.0204 1.26018 14.2497 1.98217 13.681 2.86269L15.7524 4.29061C16.0938 3.76206 16.5564 3.327 17.0992 3.02735C17.642 2.72771 18.2481 2.57276 18.8636 2.573V0.00171406ZM4.56807 27.4287C3.4219 27.4287 2.49167 26.4688 2.49167 25.286H0C0 26.5362 0.481277 27.7352 1.33796 28.6193C2.19464 29.5033 3.35654 30 4.56807 30V27.4287Z" fill="black" fill-opacity="0.5"/>
<path d="M7.89038 11.5724V28.7143V11.5724Z" fill="black" fill-opacity="0.5"/>
<path d="M7.89038 11.5724V28.7143" stroke="black" stroke-opacity="0.5" stroke-width="1.5"/>
</svg>
